<?xml version="1.0" standalone="no"?>
<!DOCTYPE svg PUBLIC "-//W3C//DTD SVG 20010904//EN"
 "http://www.w3.org/TR/2001/REC-SVG-20010904/DTD/svg10.dtd">
<svg version="1.0" xmlns="http://www.w3.org/2000/svg"
 width="629.000000pt" height="624.000000pt" viewBox="0 0 629.000000 624.000000"
 preserveAspectRatio="xMidYMid meet">

<g transform="translate(0.000000,624.000000) scale(0.100000,-0.100000)"
fill="#000000" stroke="none">
<path d="M2736 6229 c-241 -23 -543 -91 -769 -173 -141 -52 -352 -145 -436
-194 l-55 -31 60 5 c33 3 93 20 139 39 396 165 901 260 1280 240 744 -38 1420
-314 1958 -799 466 -421 799 -1003 922 -1611 72 -355 77 -739 14 -1101 -85
-494 -306 -969 -639 -1375 -90 -109 -327 -343 -440 -432 -436 -347 -928 -558
-1510 -648 -210 -33 -600 -33 -810 0 -353 54 -683 156 -972 302 -43 22 -78 36
-78 31 0 -13 208 -124 364 -193 440 -196 851 -279 1311 -266 755 21 1457 277
2045 745 126 101 365 341 470 472 334 418 550 908 632 1433 26 169 36 580 18
754 -28 278 -96 558 -202 831 -13 34 -13 34 -68 28 -30 -3 -91 -8 -135 -11
l-80 -6 -77 159 c-351 720 -1034 1297 -1828 1542 -74 23 -144 45 -154 49 -11
4 54 13 150 20 93 8 192 17 219 20 l50 6 -125 37 c-229 68 -431 107 -660 128
-134 12 -465 11 -594 -1z"/>
<path d="M2830 5783 c0 -40 4 -53 15 -53 8 0 15 8 15 18 0 29 21 42 68 42 l43
0 -6 -112 c-3 -62 -8 -152 -11 -200 l-5 -88 44 0 44 0 6 128 c4 70 7 160 7
200 l0 72 43 -6 c50 -8 67 -20 67 -45 0 -11 7 -19 15 -19 11 0 15 12 15 49 l0
49 -102 6 c-57 3 -138 7 -180 9 l-78 4 0 -54z"/>
<path d="M2645 5818 c-3 -7 4 -80 14 -163 11 -82 19 -151 18 -152 -2 -1 -53
61 -116 137 -62 76 -118 143 -124 147 -19 14 -157 -6 -157 -23 0 -9 11 -14 30
-14 18 0 33 -7 38 -17 5 -10 20 -100 32 -201 l23 -183 26 6 c14 4 26 7 27 8 1
1 -9 77 -21 170 -12 92 -21 167 -20 167 0 0 57 -69 125 -154 120 -148 127
-155 162 -155 20 -1 39 2 41 7 3 5 -43 385 -52 430 -2 8 -43 0 -46 -10z"/>
<path d="M3260 5811 c0 -5 14 -14 30 -21 17 -7 30 -17 30 -22 0 -6 -14 -91
-30 -190 -17 -99 -29 -183 -26 -185 2 -3 22 -7 43 -10 l38 -5 33 203 c18 112
36 212 38 222 5 15 -3 17 -75 17 -45 0 -81 -4 -81 -9z"/>
<path d="M3530 5756 c0 -9 11 -22 25 -28 14 -6 25 -19 25 -28 0 -10 -25 -95
-55 -190 -56 -173 -58 -196 -19 -188 14 2 30 40 69 163 l51 160 48 -192 c27
-105 52 -197 56 -203 4 -7 22 -12 40 -13 l33 -2 63 199 c35 109 62 202 59 206
-3 4 -14 10 -25 13 -18 5 -25 -9 -68 -144 -26 -82 -49 -149 -52 -149 -3 0 -25
78 -49 173 -24 94 -49 177 -55 183 -6 7 -36 20 -66 29 -30 10 -61 20 -67 23
-7 2 -13 -3 -13 -12z"/>
<path d="M1991 5691 c-80 -25 -146 -52 -148 -58 -3 -7 10 -13 34 -15 l38 -3
56 -179 c31 -99 61 -182 67 -184 10 -3 247 65 261 74 2 2 -3 26 -10 54 -13 53
-32 62 -37 18 -4 -35 -27 -53 -89 -71 -62 -17 -63 -17 -90 74 l-20 67 37 11
c50 15 75 14 90 -4 15 -18 44 -20 37 -2 -2 6 -13 38 -23 70 -18 57 -36 70 -42
29 -4 -24 -43 -49 -86 -54 -26 -3 -29 1 -47 57 -10 33 -19 63 -19 67 0 9 89
38 117 38 12 0 28 -9 35 -20 14 -22 38 -27 38 -9 0 34 -25 89 -39 88 -9 -1
-81 -22 -160 -48z"/>
<path d="M1620 5541 c-90 -29 -154 -86 -166 -146 -8 -46 10 -117 46 -180 72
-125 158 -155 276 -95 62 32 124 82 124 101 0 12 -73 156 -94 184 -11 16 -17
15 -77 -15 -77 -39 -75 -38 -62 -51 6 -6 18 -6 35 0 20 8 29 6 41 -7 18 -20
67 -117 67 -132 0 -19 -64 -50 -102 -50 -51 0 -98 44 -143 132 -46 94 -48 145
-4 182 35 30 56 32 88 10 21 -15 26 -15 62 1 44 20 46 25 20 49 -22 20 -76 28
-111 17z"/>
<path d="M4150 5527 c0 -8 7 -20 15 -27 8 -7 15 -16 15 -21 0 -4 -70 -67 -155
-139 -85 -72 -155 -135 -155 -140 0 -8 24 -20 40 -20 5 0 30 18 55 40 25 22
48 40 51 40 2 0 36 -16 75 -36 l71 -35 -7 -74 -7 -73 32 -17 c17 -9 34 -14 36
-12 3 2 16 94 29 203 13 110 26 213 29 230 4 31 -8 41 -116 92 -5 2 -8 -3 -8
-11z m36 -139 c-3 -13 -8 -53 -11 -90 l-6 -67 -58 32 -57 31 65 57 c37 32 67
58 69 58 1 1 0 -9 -2 -21z"/>
<path d="M1179 5262 c-61 -31 -211 -154 -201 -164 6 -6 17 -6 30 1 11 6 25 11
31 11 5 0 64 -70 131 -155 l121 -155 35 26 c22 17 31 31 26 38 -5 6 -32 41
-60 77 -72 93 -59 101 79 49 57 -22 106 -40 109 -40 3 0 21 13 40 28 l34 29
-112 43 c-62 23 -112 46 -112 49 0 3 7 15 15 25 29 38 9 122 -34 146 -30 16
-93 12 -132 -8z m85 -73 c14 -17 26 -39 26 -49 0 -22 -56 -90 -74 -90 -10 0
-87 99 -90 116 -2 13 65 54 90 54 13 0 33 -13 48 -31z"/>
<path d="M4717 5164 c-4 -4 1 -20 10 -36 l17 -28 -139 -140 -140 -140 70 -71
c81 -81 127 -109 186 -109 54 0 101 23 155 78 58 57 78 96 78 152 0 63 -24
102 -127 208 -90 92 -98 98 -110 86z m148 -192 c33 -48 32 -89 -3 -138 -60
-83 -149 -142 -196 -130 -29 7 -96 62 -96 79 0 7 53 64 117 129 129 129 131
130 178 60z"/>
<path d="M2695 5154 c-234 -27 -409 -68 -576 -134 -591 -234 -1031 -747 -1200
-1398 -75 -291 -80 -649 -13 -982 52 -259 172 -543 312 -739 77 -108 254 -297
357 -381 344 -279 754 -425 1254 -446 441 -19 850 91 1201 323 144 95 237 172
356 295 87 89 264 310 264 329 0 4 -40 10 -90 14 -49 4 -90 9 -90 12 0 2 13
23 28 46 88 130 193 370 236 542 22 88 30 132 51 261 l5 30 81 -9 c44 -5 83
-6 86 -3 13 13 5 385 -11 491 -145 945 -909 1653 -1881 1745 -103 9 -301 11
-370 4z m245 -165 c564 -51 1064 -320 1389 -748 434 -570 502 -1354 176 -2026
-299 -615 -860 -992 -1558 -1045 -169 -13 -360 0 -537 36 -705 142 -1235 653
-1416 1364 -56 223 -80 560 -55 780 26 223 94 471 177 647 49 102 177 291 264
388 393 438 963 659 1560 604z"/>
<path d="M2433 4542 c-244 -119 -443 -220 -443 -224 0 -5 407 -8 905 -8 498 0
905 3 905 8 0 9 -894 442 -912 441 -7 -1 -212 -98 -455 -217z m817 -7 c189
-91 346 -168 349 -170 2 -3 -310 -5 -695 -4 l-699 1 340 169 c187 93 345 169
350 169 6 0 165 -75 355 -165z"/>
<path d="M2154 4258 c6 -29 16 -42 40 -51 8 -2 -31 -667 -39 -675 -9 -9 -43
70 -49 112 -17 136 -137 197 -247 127 -48 -30 -89 -75 -89 -97 0 -7 9 -29 20
-49 11 -20 20 -49 20 -66 0 -22 6 -32 25 -39 13 -5 31 -22 39 -38 9 -17 29
-35 46 -40 37 -13 38 -35 7 -82 -13 -19 -31 -54 -40 -78 -15 -37 -16 -50 -5
-84 11 -36 10 -42 -7 -54 -24 -18 -164 -64 -193 -64 -37 0 -101 -38 -123 -73
-23 -37 -20 -88 8 -121 33 -39 63 -111 77 -186 28 -151 76 -399 111 -569 19
-96 35 -179 35 -185 0 -6 -21 -24 -46 -41 -45 -30 -45 -30 -41 -82 5 -75 27
-103 80 -103 23 0 59 5 79 10 31 9 42 8 64 -7 40 -26 250 -21 277 6 18 18 18
20 1 69 -18 49 -18 54 0 154 11 57 21 140 24 186 4 75 2 87 -24 138 l-28 55
24 97 c13 53 25 133 28 177 4 63 10 88 30 118 16 24 27 57 30 90 3 46 -1 61
-38 131 -41 78 -42 81 -36 150 11 115 0 106 141 106 l123 0 7 -27 c3 -16 17
-44 30 -63 19 -29 38 -95 48 -168 1 -9 -13 -14 -46 -17 -37 -2 -56 -10 -80
-32 -18 -16 -45 -37 -60 -47 -34 -21 -33 -56 1 -71 12 -5 22 -16 22 -23 0 -7
7 -24 16 -37 9 -13 13 -29 9 -35 -12 -20 16 -39 66 -46 43 -6 47 -9 39 -25 -6
-10 -15 -67 -20 -126 -6 -59 -19 -148 -30 -198 -21 -100 -36 -197 -45 -295 -4
-35 -12 -78 -19 -95 -16 -37 -80 -100 -133 -129 -75 -42 -48 -96 49 -96 32 0
66 4 76 10 9 5 44 20 76 32 33 13 62 30 67 38 4 8 12 48 18 88 8 55 25 100 69
185 54 106 57 116 59 192 3 124 14 168 59 221 21 26 49 58 61 73 11 14 23 24
26 21 2 -3 30 -49 62 -102 61 -105 84 -157 85 -199 0 -49 47 -209 72 -246 26
-40 62 -142 73 -208 4 -22 11 -48 17 -58 27 -51 213 -86 278 -53 25 12 63 16
160 16 125 0 150 6 150 37 0 7 -27 30 -60 53 -69 47 -81 74 -73 174 6 63 8 68
57 117 58 58 119 139 141 187 21 45 6 154 -33 242 -16 36 -37 94 -46 130 -10
36 -20 73 -22 83 -3 10 0 17 8 17 25 0 39 -17 43 -50 5 -39 11 -46 45 -55 20
-4 37 4 80 40 30 25 58 45 62 45 15 0 8 42 -11 66 l-19 24 40 40 c30 30 39 46
37 67 -2 17 8 47 24 74 15 25 31 66 37 90 5 24 15 66 21 93 l13 48 45 -6 c25
-3 59 -11 77 -18 69 -25 84 19 33 95 -34 52 -64 77 -91 77 -12 0 -18 8 -18 23
0 50 -92 91 -127 56 -8 -8 -21 -8 -47 1 -36 12 -45 23 -26 35 6 3 10 26 10 50
0 24 5 47 10 50 16 10 12 98 -6 123 -24 35 -68 52 -131 52 -39 0 -68 -6 -89
-19 -35 -21 -74 -93 -74 -134 0 -15 -4 -27 -8 -27 -5 0 -14 144 -21 320 l-13
320 26 21 c15 12 26 30 26 45 l0 24 -756 0 -756 0 6 -32z m394 -28 c7 -11 19
-20 28 -20 13 0 14 -14 9 -97 -7 -117 -25 -542 -25 -584 0 -28 -1 -29 -54 -29
l-54 0 -6 63 c-3 34 -8 181 -11 327 -3 146 -8 277 -11 293 -4 20 -2 27 10 27
9 0 21 9 28 20 8 13 24 20 43 20 19 0 35 -7 43 -20z m392 6 c0 -8 9 -18 20
-21 25 -8 25 -19 2 -385 -16 -244 -18 -265 -36 -268 -26 -5 -36 15 -36 73 0
49 -28 115 -49 115 -10 0 -17 85 -26 313 -5 129 -4 147 9 147 9 0 21 9 28 20
16 25 88 29 88 6z m416 -13 l26 -26 -16 -331 c-9 -182 -16 -339 -16 -348 0
-15 -9 -18 -55 -18 -49 0 -55 2 -59 23 -3 12 -10 164 -16 337 -6 173 -14 323
-16 333 -4 11 0 17 10 17 9 0 21 9 28 20 19 31 80 27 114 -7z m-974 -2 c4 -3
10 -167 14 -364 l7 -357 -96 0 c-86 0 -97 2 -97 18 3 113 49 695 56 702 19 18
96 19 116 1z m391 0 c5 -5 11 -108 14 -230 l6 -221 -40 0 c-22 0 -61 -11 -88
-24 l-47 -24 6 216 c8 270 11 289 39 295 28 6 100 -2 110 -12z m399 -4 c4 -7
8 -59 8 -117 0 -58 3 -216 7 -352 l6 -248 -27 0 c-16 0 -41 11 -57 24 -15 13
-46 27 -69 31 -35 6 -40 10 -40 33 0 57 31 618 35 629 8 24 121 25 137 0z
m396 9 c3 -4 30 -589 32 -693 l0 -33 -100 0 -100 0 0 48 c0 26 7 178 15 337 8
160 15 300 15 313 0 30 33 43 89 37 25 -3 46 -7 49 -9z m-1544 -506 c22 -26
49 -108 43 -132 -5 -19 1 -30 28 -51 19 -15 35 -36 35 -45 0 -9 13 -24 29 -34
62 -35 84 -117 43 -161 -17 -18 -24 -43 -32 -118 -9 -95 -24 -148 -55 -209
-21 -41 -76 -65 -213 -94 -59 -13 -121 -30 -139 -39 -18 -10 -47 -17 -66 -17
-31 0 -35 4 -41 32 -3 17 -4 34 -1 36 3 3 31 9 63 12 31 4 86 20 122 35 36 15
92 37 125 50 58 23 60 24 57 57 -4 39 14 129 34 176 13 31 13 37 -6 67 -11 18
-20 40 -20 50 0 9 -6 15 -12 13 -17 -6 -22 -81 -8 -108 8 -15 7 -26 -6 -45
-10 -15 -19 -55 -22 -96 -3 -39 -9 -66 -13 -62 -14 14 -14 106 -1 111 19 6 14
18 -19 51 -34 35 -33 47 8 121 58 102 56 95 31 140 -14 24 -29 39 -39 38 -19
-3 -49 19 -49 37 0 6 -11 17 -25 23 -23 11 -25 16 -19 47 4 26 3 35 -7 35 -7
0 -3 7 9 16 13 9 31 13 42 9 25 -8 27 16 4 36 -12 10 -22 10 -46 1 -50 -19
-13 16 46 43 48 22 52 23 79 7 16 -10 34 -24 41 -32z m794 -6 c29 -20 30 -54
2 -47 -14 4 -30 -3 -45 -17 -41 -39 -30 -49 28 -25 24 10 22 -17 -3 -40 -28
-26 -26 -49 4 -43 20 4 27 -1 36 -23 16 -38 1 -60 -17 -25 -17 33 -26 33 -47
1 -18 -28 -14 -45 11 -45 9 0 14 -3 10 -6 -14 -15 -56 8 -76 41 l-20 35 24 0
c37 0 31 26 -12 47 -39 19 -55 43 -29 43 9 0 16 7 16 15 0 11 -7 14 -25 9 -36
-9 -34 25 4 65 24 26 37 31 73 31 24 0 54 -7 66 -16z m1052 -40 c25 -14 36
-22 25 -18 -40 13 -50 9 -53 -18 -2 -16 1 -28 7 -28 6 0 11 5 11 10 0 14 13
12 36 -5 18 -14 18 -16 2 -26 -22 -13 -23 -45 -2 -57 15 -8 15 -12 -2 -38 -38
-62 -43 -65 -80 -49 -33 14 -34 13 -29 -8 4 -16 -1 -30 -19 -47 -30 -27 -31
-36 -12 -76 8 -16 21 -50 28 -77 11 -41 10 -52 -4 -80 -9 -17 -17 -52 -17 -77
-2 -49 -15 -106 -31 -130 -15 -24 -66 8 -63 41 2 13 5 62 8 109 4 47 11 104
17 127 11 43 4 113 -11 113 -5 0 -11 -21 -14 -47 -4 -38 -12 -53 -36 -74 -28
-23 -30 -28 -17 -39 28 -22 31 -78 7 -150 -11 -36 -21 -69 -21 -72 0 -3 29
-24 64 -47 35 -23 72 -51 82 -62 10 -11 33 -29 51 -40 l34 -21 22 21 c54 51
77 69 77 61 0 -5 -6 -14 -12 -19 -52 -42 -67 -59 -74 -81 -6 -23 -5 -24 11
-10 15 13 19 12 31 -5 13 -17 12 -21 -7 -36 -28 -21 -50 -18 -80 10 -27 26
-95 60 -121 61 -22 0 -137 66 -168 95 -22 22 -25 34 -28 122 -5 137 11 310 32
354 13 28 29 42 66 57 57 24 90 68 114 153 23 81 65 127 116 128 8 0 35 -11
60 -25z m-1228 -136 l18 -38 -25 0 c-24 0 -25 3 -24 53 0 28 3 45 6 37 3 -8
14 -32 25 -52z m442 -49 c25 -23 31 -39 37 -93 3 -35 16 -83 27 -107 22 -47
43 -174 46 -276 1 -79 -23 -118 -75 -118 -30 0 -34 3 -33 25 1 14 7 47 15 73
13 47 13 50 -15 99 -31 55 -35 94 -21 204 7 53 5 62 -10 68 -10 3 -20 4 -23 1
-3 -3 -6 -37 -7 -76 -1 -60 -4 -74 -22 -88 -19 -16 -20 -22 -11 -69 9 -43 8
-56 -6 -76 -15 -23 -15 -28 1 -61 13 -26 14 -42 7 -63 -9 -25 -14 -27 -69 -30
-33 -1 -78 1 -99 5 l-39 8 -4 83 c-4 68 -2 83 11 88 24 9 19 21 -13 32 -16 6
-37 22 -46 36 -38 57 -65 11 -34 -57 12 -27 19 -65 19 -107 0 -64 1 -67 45
-114 25 -26 64 -72 86 -102 28 -38 56 -62 96 -83 51 -25 55 -29 34 -36 -20 -6
-22 -11 -16 -46 8 -44 7 -44 -40 -25 -23 10 -39 26 -48 49 -10 23 -44 56 -109
105 -96 72 -119 97 -132 142 -5 14 -18 52 -31 85 -12 33 -26 77 -29 98 -4 21
-18 54 -32 74 -41 61 -33 102 40 185 23 26 56 66 75 88 27 32 36 38 43 27 13
-23 64 -40 102 -33 38 7 82 51 92 91 5 19 14 25 42 28 68 8 115 -3 146 -34z
m-474 -54 c-10 -12 -44 -15 -185 -15 -144 0 -174 2 -179 15 -5 13 20 15 186
15 168 0 189 -2 178 -15z m910 0 c-10 -12 -44 -15 -186 -15 -148 0 -174 2
-174 15 0 13 27 15 186 15 165 0 185 -2 174 -15z m554 -38 c36 -26 -4 -84 -41
-61 -24 15 -27 38 -8 58 20 19 26 20 49 3z m-115 -39 c23 -40 23 -42 5 -55
-10 -7 -22 -13 -26 -13 -8 0 -67 39 -78 51 -3 3 -14 9 -25 13 -18 7 -15 11 20
27 61 28 77 24 104 -23z m-1414 2 c-16 -18 -31 -20 -147 -20 -121 0 -128 1
-128 20 0 19 7 20 147 20 145 0 146 0 128 -20z m921 4 c-3 -9 -6 -18 -6 -20 0
-2 -63 -4 -140 -4 -133 0 -140 1 -140 20 0 19 7 20 146 20 129 0 145 -2 140
-16z m405 -82 l39 -39 -15 -36 c-8 -20 -15 -50 -15 -67 0 -29 -14 -38 -35 -22
-6 4 -10 36 -10 72 0 36 -4 80 -8 98 -5 17 -6 32 -2 32 3 0 24 -17 46 -38z
m322 -13 c27 -28 47 -53 44 -55 -2 -2 -26 3 -53 11 -27 8 -61 15 -75 15 -40 0
-46 30 -12 57 15 13 32 23 37 23 5 0 32 -23 59 -51z m-1699 6 c-5 -12 -29 -15
-130 -15 -113 0 -136 5 -117 23 3 4 62 7 129 7 106 0 123 -2 118 -15z m954 3
c-4 -10 -37 -13 -123 -13 -86 0 -119 3 -122 13 -4 9 25 12 122 12 97 0 126 -3
123 -12z m542 -2 c0 -3 -4 -8 -10 -11 -5 -3 -10 -1 -10 4 0 6 5 11 10 11 6 0
10 -2 10 -4z m53 -15 c-3 -11 -22 -33 -44 -51 -26 -21 -39 -39 -39 -55 0 -26
-14 -33 -25 -14 -14 22 7 60 45 84 22 14 40 32 40 40 0 8 6 15 14 15 9 0 12
-7 9 -19z m-609 -204 c-1 -135 -3 -147 -28 -201 -35 -74 -44 -151 -23 -197 9
-19 20 -86 26 -149 7 -63 15 -132 20 -154 7 -28 5 -49 -6 -80 -22 -60 -22
-249 0 -300 9 -21 17 -61 17 -88 0 -55 -18 -138 -30 -138 -14 0 -92 63 -112
91 -15 20 -22 58 -33 175 -13 145 -25 197 -64 272 -27 54 -41 123 -41 203 l0
72 43 -7 c138 -21 135 -21 142 7 4 14 2 34 -4 45 -7 14 -7 28 2 51 9 25 9 34
-1 40 -14 8 -18 89 -7 140 9 41 -3 51 -66 51 l-46 0 15 70 c14 64 14 77 -1
143 -10 40 -17 78 -17 85 0 9 28 12 108 12 l107 0 -1 -143z m602 74 c-8 -15
-33 -36 -56 -46 -27 -12 -48 -31 -60 -54 -17 -31 -19 -33 -20 -13 0 38 19 62
66 82 29 13 48 29 54 45 6 15 14 23 20 20 6 -4 5 -16 -4 -34z m-2128 -83 c4
-42 2 -43 -103 -53 -38 -4 -82 -13 -97 -21 -36 -19 -59 -18 -52 1 9 22 -16 18
-43 -7 l-23 -21 0 21 c0 25 44 62 75 62 12 0 42 7 66 16 67 24 142 43 159 41
10 -1 16 -15 18 -39z m1145 -65 c-9 -24 -17 -42 -20 -39 -3 2 -1 35 3 73 7 65
8 67 19 39 10 -24 10 -38 -2 -73z m811 79 c6 -10 -33 -92 -43 -92 -3 0 -12 4
-20 9 -12 8 -13 16 -2 50 9 33 16 41 36 41 13 0 26 -4 29 -8z m104 -84 c-8
-13 -31 -31 -51 -40 -19 -10 -43 -28 -51 -40 -11 -16 -16 -18 -16 -7 0 25 22
46 62 59 21 6 40 20 43 31 4 10 11 19 17 19 6 0 4 -9 -4 -22z m-1752 -64 c39
-66 36 -110 -11 -175 l-39 -51 -1 -117 c-2 -83 -8 -136 -23 -186 -18 -60 -19
-72 -7 -85 24 -26 45 -99 45 -154 0 -28 -7 -113 -17 -188 -14 -114 -14 -142
-4 -162 17 -31 6 -49 -25 -43 -14 2 -45 0 -71 -4 -25 -5 -49 -7 -52 -4 -3 3
11 19 31 35 64 53 69 75 53 241 -16 157 -26 205 -55 259 -33 62 -57 247 -54
414 l3 150 48 15 c32 10 63 31 93 61 25 26 48 45 52 43 4 -2 20 -24 34 -49z
m1594 1 c0 -7 -3 -21 -6 -29 -5 -13 -9 -14 -20 -5 -14 12 -19 41 -8 52 9 9 34
-4 34 -18z m-1235 -45 c4 -6 -15 -10 -50 -10 -35 0 -54 4 -50 10 3 6 26 10 50
10 24 0 47 -4 50 -10z m519 -14 c116 -4 183 -10 190 -17 8 -9 -44 -10 -208 -5
-120 4 -223 9 -228 12 -18 11 4 23 35 19 17 -2 113 -7 211 -9z m461 -48 c65
-32 85 -47 85 -63 0 -11 7 -38 14 -60 11 -30 12 -59 5 -120 -12 -110 -45 -289
-58 -313 -6 -12 -11 -36 -11 -54 0 -18 -9 -92 -21 -164 -26 -159 -22 -209 23
-260 17 -19 45 -41 62 -49 28 -12 21 -13 -69 -8 -55 3 -105 10 -112 15 -8 7
-8 23 3 67 7 32 16 88 20 125 6 57 4 69 -12 87 -16 17 -19 37 -19 113 0 76 4
99 24 140 22 43 23 52 12 80 -22 53 -29 96 -36 200 -4 56 -13 123 -22 149 -8
26 -12 60 -9 75 8 33 27 82 32 82 2 0 42 -19 89 -42z m-1620 -11 c7 -34 -3
-66 -64 -217 -17 -41 -36 -95 -42 -120 l-12 -45 -18 90 c-10 50 -23 110 -29
135 -5 25 -12 66 -16 92 -7 54 -1 60 93 82 81 20 81 20 88 -17z m675 13 c0
-13 -130 -13 -150 0 -10 7 11 10 68 10 48 0 82 -4 82 -10z m642 -28 c10 -10
-15 -11 -132 -6 -227 11 -260 23 -58 21 128 -2 181 -6 190 -15z m-1558 -1 c3
-5 17 -73 31 -152 13 -79 34 -189 45 -244 31 -147 90 -459 87 -462 -14 -14
-35 71 -105 422 -45 226 -82 418 -82 428 0 18 15 23 24 8z m962 -32 c5 -8 -21
-9 -92 -4 -55 4 -101 9 -103 11 -2 2 39 4 92 4 59 0 98 -4 103 -11z m618 -20
c8 -8 -31 -10 -154 -5 -91 3 -171 6 -177 6 -7 0 -13 5 -13 12 0 15 329 4 344
-13z m-575 -30 c54 -19 16 -30 -84 -23 -103 6 -119 10 -110 24 8 14 154 13
194 -1z m539 -16 c54 -6 67 -25 22 -31 -43 -7 -168 9 -187 23 -16 13 -11 14
47 15 36 0 89 -3 118 -7z m-510 -52 c65 -13 71 -23 42 -78 -14 -26 -40 -64
-57 -86 -19 -22 -33 -51 -33 -65 -1 -15 -8 -45 -17 -67 -10 -25 -15 -66 -14
-111 2 -65 -1 -76 -39 -150 -62 -117 -82 -172 -89 -244 l-6 -65 -35 -5 c-19
-3 -47 -13 -62 -23 -29 -20 -108 -35 -107 -21 0 5 18 23 41 39 67 50 105 124
123 240 9 55 23 129 31 165 8 36 26 138 39 227 13 91 32 182 44 208 19 42 22
45 58 45 21 -1 57 -5 81 -9z m486 -20 c86 -19 104 -26 94 -36 -6 -6 -239 32
-270 45 -44 17 84 11 176 -9z m-1259 -121 c13 -85 14 -118 6 -142 -9 -26 -8
-36 8 -62 11 -17 35 -63 55 -102 33 -65 36 -78 42 -188 6 -119 1 -166 -16
-166 -5 0 -14 19 -20 43 -33 137 -116 345 -163 409 -22 30 -20 80 7 175 16 55
52 143 59 143 3 0 12 -50 22 -110z m1141 69 c13 -15 16 -32 12 -92 -4 -64 -2
-76 13 -85 10 -7 21 -29 24 -49 3 -21 13 -54 22 -73 33 -76 44 -131 53 -267 6
-89 15 -153 24 -170 21 -40 82 -94 99 -88 7 3 25 -3 38 -14 l24 -19 -40 -8
c-24 -4 -55 -2 -80 5 -22 7 -52 15 -67 18 -22 4 -29 12 -33 42 -4 20 -13 59
-20 86 -8 28 -16 75 -19 107 -3 31 -9 64 -13 74 -6 16 -7 16 -19 0 -11 -15
-15 -10 -38 38 -42 89 -59 170 -51 244 6 56 5 64 -9 59 -10 -4 -24 9 -47 46
-26 42 -59 117 -59 134 0 2 24 2 52 1 45 -3 54 0 62 18 11 25 46 22 72 -7z
m637 -96 c39 -91 45 -217 11 -230 -8 -3 -30 -29 -50 -58 -19 -29 -42 -59 -51
-67 -15 -12 -16 -8 -9 41 4 30 12 64 19 75 6 12 17 64 24 116 23 175 28 187
56 123z m-1792 -506 c-21 -21 -39 2 -50 70 -6 37 -14 82 -17 98 -2 17 14 -12
36 -64 28 -63 38 -97 31 -104z m36 -55 c19 -12 27 -60 13 -77 -16 -19 -170
-68 -201 -63 -17 2 -27 13 -35 38 -20 59 16 95 91 92 22 -1 47 2 55 8 18 11
60 13 77 2z"/>
<path d="M752 4877 c-54 -55 -56 -88 -2 -55 10 7 21 10 23 8 3 -3 46 -88 97
-189 l92 -184 20 20 20 20 -32 62 -31 62 52 60 c28 32 54 59 57 59 4 0 35 -10
70 -22 l63 -22 26 27 c17 17 24 30 18 36 -10 8 -411 161 -424 161 -4 0 -26
-19 -49 -43z m239 -115 c4 -4 -10 -27 -32 -51 -22 -24 -41 -42 -43 -40 -2 2
-20 36 -40 76 l-36 72 72 -25 c40 -13 75 -28 79 -32z"/>
<path d="M5094 4743 l7 -38 -153 -105 c-83 -58 -156 -108 -161 -111 -8 -6 111
-189 147 -226 9 -10 19 -8 49 12 42 29 51 61 15 50 -45 -14 -52 -10 -92 50
-20 30 -36 57 -36 59 0 8 118 86 129 86 6 0 22 -20 37 -45 25 -44 26 -46 8
-66 -12 -14 -14 -23 -7 -30 8 -8 27 0 67 27 64 45 71 64 22 64 -28 0 -38 6
-60 40 -14 22 -26 41 -26 43 0 5 108 77 115 77 3 0 21 -25 41 -55 35 -53 36
-56 20 -79 -33 -51 -13 -61 41 -20 18 14 33 29 33 34 0 15 -181 270 -192 270
-6 0 -7 -15 -4 -37z"/>
<path d="M425 4330 c-41 -17 -86 -78 -140 -193 -30 -64 -55 -119 -55 -122 0
-14 31 -2 40 15 6 11 18 20 26 20 9 0 89 -34 178 -76 88 -42 166 -78 172 -80
14 -6 90 165 99 223 8 53 -20 121 -63 151 -86 62 -196 88 -257 62z m153 -104
c80 -40 113 -73 114 -113 1 -35 -19 -98 -35 -111 -8 -7 -56 11 -154 57 -78 36
-147 71 -153 77 -15 15 19 84 57 114 36 28 80 22 171 -24z"/>
<path d="M5460 4101 l0 -39 -172 -57 c-95 -32 -177 -62 -183 -67 -11 -10 74
-268 89 -268 5 0 26 5 47 12 47 14 52 38 8 38 -26 0 -33 6 -51 47 -11 25 -21
60 -22 76 -1 29 0 29 176 91 97 34 180 64 183 68 9 8 -52 138 -64 138 -6 0
-11 -18 -11 -39z"/>
<path d="M384 3797 l-222 -30 -12 -56 c-7 -31 -15 -62 -17 -68 -3 -7 2 -13 10
-13 9 0 19 9 22 20 3 11 12 20 19 20 7 0 85 -52 175 -115 89 -63 166 -115 172
-115 5 0 9 12 9 28 0 21 -9 33 -44 55 -62 39 -67 47 -56 88 5 19 14 53 20 76
10 40 12 42 58 48 78 10 90 14 96 33 2 9 7 27 11 40 4 15 2 22 -7 21 -7 -1
-113 -15 -234 -32z m36 -86 c0 -21 -24 -111 -29 -111 -4 0 -37 22 -74 49 l-67
48 62 10 c86 14 108 15 108 4z"/>
<path d="M5202 3603 c3 -24 9 -28 73 -42 l70 -16 7 -55 c4 -30 10 -67 12 -82
5 -24 -1 -30 -55 -60 -59 -33 -60 -34 -57 -73 2 -22 8 -39 13 -39 6 1 97 50
203 110 l194 109 -6 69 c-4 39 -8 72 -11 74 -9 10 -25 -11 -25 -34 0 -16 -6
-24 -17 -24 -10 0 -103 20 -207 45 -104 25 -191 45 -193 45 -2 0 -3 -12 -1
-27z m283 -91 l70 -18 -40 -25 c-74 -47 -104 -63 -108 -58 -3 2 -8 30 -11 62
-9 66 -12 65 89 39z"/>
<path d="M185 3396 c-47 -21 -82 -69 -94 -128 -16 -86 -21 -268 -7 -268 6 0
17 14 23 31 l12 31 158 -6 c87 -4 175 -9 195 -12 l36 -5 8 57 c3 31 4 90 1
131 -10 134 -59 176 -212 180 -60 2 -100 -1 -120 -11z m228 -90 c27 -11 42
-26 52 -50 18 -44 19 -100 2 -114 -14 -12 -315 -1 -336 12 -15 10 -14 60 3 99
15 36 41 62 71 70 36 10 170 0 208 -17z"/>
<path d="M5245 2906 c-7 -23 -38 -266 -34 -270 2 -2 25 -7 52 -10 37 -6 47 -4
47 7 0 7 -12 19 -26 26 -26 11 -27 14 -21 77 4 36 9 70 13 75 4 7 29 9 72 4
92 -10 94 -11 86 -54 -10 -62 -15 -71 -39 -77 -48 -12 -36 -32 23 -39 31 -3
65 -8 75 -11 12 -4 17 0 17 15 0 12 -7 21 -15 21 -20 0 -29 44 -19 89 l9 37
65 -10 65 -11 -1 -59 c-1 -49 -6 -63 -24 -78 -13 -11 -30 -16 -37 -13 -10 3
-13 -1 -11 -13 2 -12 16 -18 50 -22 55 -7 48 -22 73 160 9 63 18 127 21 143 4
20 2 27 -10 27 -9 0 -16 -6 -16 -13 0 -7 -6 -21 -12 -30 -12 -15 -28 -14 -206
12 -133 19 -195 24 -197 17z"/>
<path d="M267 2887 c-148 -16 -187 -23 -183 -34 3 -8 11 -43 18 -79 12 -67 29
-80 38 -29 3 15 12 32 20 37 8 4 94 16 190 26 l175 17 3 43 3 42 -38 -1 c-21
-1 -123 -11 -226 -22z"/>
<path d="M413 2703 c-37 -7 -69 -57 -88 -135 -22 -90 -39 -125 -65 -133 -49
-16 -87 51 -76 132 l6 45 -28 -7 c-15 -4 -29 -8 -31 -10 -8 -9 22 -141 40
-177 38 -74 131 -89 182 -29 13 16 32 60 41 98 24 100 34 120 67 133 63 27
109 -50 91 -151 -8 -42 -7 -49 5 -45 8 3 22 6 30 6 13 0 15 12 11 74 -5 82
-36 157 -73 182 -25 17 -78 25 -112 17z"/>
<path d="M5181 2517 c-5 -12 -7 -25 -5 -28 2 -3 74 -32 161 -65 l157 -59 -188
-5 c-184 -5 -189 -6 -197 -27 -7 -20 7 -36 122 -139 71 -64 128 -118 126 -120
-2 -2 -68 21 -148 51 -79 30 -147 55 -151 55 -7 0 -32 -70 -26 -74 19 -14 392
-147 401 -143 7 3 19 24 26 48 11 36 11 45 -1 53 -8 6 -68 58 -133 116 l-118
105 179 3 180 2 27 74 c15 40 27 76 27 79 0 15 -22 6 -43 -18 l-22 -24 -130
49 c-71 28 -154 59 -183 70 l-53 20 -8 -23z"/>
<path d="M582 2328 c-21 -29 -52 -72 -69 -96 -23 -32 -32 -39 -36 -27 -4 8
-22 22 -41 31 -44 21 -95 12 -127 -22 -40 -43 -33 -115 26 -252 46 -108 73
-138 67 -75 -2 16 3 35 10 40 7 6 87 43 177 82 91 39 166 73 168 75 6 6 -27
76 -36 76 -5 0 -46 -17 -91 -37 -113 -51 -118 -37 -33 85 l66 94 -13 39 c-7
21 -17 39 -21 39 -5 0 -26 -24 -47 -52z m-113 -193 c46 -53 41 -66 -34 -97
l-65 -27 -14 22 c-31 47 -30 74 2 107 41 40 72 39 111 -5z"/>
<path d="M4935 1966 c-11 -19 -17 -37 -15 -38 3 -2 38 -25 78 -51 l72 -47 -30
-53 c-39 -69 -40 -123 -5 -166 51 -60 132 -62 187 -3 30 32 138 198 138 212 0
15 -26 12 -40 -5 -7 -8 -18 -15 -25 -15 -7 0 -79 43 -161 96 -82 53 -156 99
-165 101 -10 3 -22 -8 -34 -31z m246 -206 c32 -23 59 -45 59 -50 0 -19 -53
-70 -73 -70 -34 0 -86 37 -93 66 -7 28 20 94 38 94 5 0 36 -18 69 -40z"/>
<path d="M757 1964 c-44 -29 -41 -39 11 -39 32 0 40 -6 74 -54 21 -29 35 -58
32 -62 -3 -5 -33 -28 -66 -50 l-61 -42 -18 24 c-35 46 -43 78 -26 97 9 10 13
23 9 29 -5 9 -25 1 -65 -25 -63 -41 -72 -62 -28 -62 28 0 56 -26 84 -76 6 -11
-92 -84 -112 -84 -11 0 -71 92 -71 110 0 7 8 22 17 32 12 13 13 22 6 29 -8 8
-23 3 -52 -16 -22 -15 -41 -29 -41 -32 0 -2 41 -64 90 -138 53 -79 97 -135
106 -135 11 0 14 5 9 18 -20 49 -21 48 144 158 89 59 161 111 161 116 0 15
-145 228 -155 228 -6 0 -28 -12 -48 -26z"/>
<path d="M4714 1659 l-29 -31 73 -68 c96 -89 88 -97 -67 -68 l-113 21 -24 -29
c-13 -16 -23 -32 -24 -35 0 -4 52 -17 115 -29 104 -20 114 -24 105 -41 -16
-28 -11 -92 8 -115 38 -48 90 -56 151 -24 34 17 190 174 199 200 5 15 -21 12
-45 -5 -21 -15 -27 -11 -155 107 -178 165 -159 153 -194 117z m256 -304 c0
-20 -59 -65 -84 -65 -28 0 -72 33 -81 60 -7 21 7 54 38 87 l20 22 53 -46 c30
-25 54 -51 54 -58z"/>
<path d="M892 1483 c-195 -83 -202 -86 -186 -104 9 -11 21 -19 26 -19 6 0 78
29 161 65 83 36 153 63 155 60 2 -2 -29 -74 -69 -160 l-73 -156 52 -52 c28
-28 54 -48 58 -45 3 4 0 22 -7 42 -12 34 -10 41 76 226 85 185 87 191 70 210
-10 11 -28 20 -39 19 -12 -1 -112 -39 -224 -86z"/>
<path d="M4355 1319 c-130 -101 -123 -91 -88 -138 20 -27 33 -37 42 -32 10 7
10 13 2 29 -6 11 -11 25 -11 30 0 13 99 92 114 92 13 0 96 -103 96 -119 0 -6
-18 -23 -40 -37 -36 -24 -43 -26 -66 -14 -44 24 -46 -1 -3 -58 45 -59 74 -70
64 -23 -5 25 -1 33 35 61 46 36 48 36 98 -34 l33 -45 -52 -41 c-28 -22 -54
-40 -58 -40 -3 0 -17 7 -30 16 -15 11 -26 13 -33 6 -12 -12 36 -82 56 -82 6 0
61 39 121 86 61 47 119 92 130 100 27 19 6 41 -22 23 -11 -7 -27 -10 -35 -6
-8 3 -66 71 -128 151 -62 80 -117 146 -124 146 -6 -1 -51 -33 -101 -71z"/>
<path d="M1222 1180 c-73 -93 -132 -171 -132 -174 0 -3 28 -23 63 -45 67 -43
94 -41 58 5 -13 16 -18 31 -12 38 4 6 58 75 119 154 l112 144 -29 24 c-16 13
-33 24 -38 24 -5 0 -69 -76 -141 -170z"/>
<path d="M1426 1034 c-58 -103 -106 -191 -106 -195 0 -4 10 -11 22 -15 27 -8
29 -4 116 151 l67 120 6 -70 c4 -38 7 -117 8 -175 1 -58 4 -114 7 -126 3 -13
30 -34 69 -55 67 -36 93 -34 57 4 -12 13 -22 29 -22 35 0 7 41 83 90 171 50
87 90 163 90 169 0 9 -23 22 -39 22 -5 0 -46 -66 -92 -147 l-84 -148 -6 135
c-4 74 -7 167 -8 206 -1 67 -3 72 -28 85 -16 7 -31 15 -34 17 -4 1 -54 -81
-113 -184z"/>
<path d="M4071 1134 c-109 -54 -146 -126 -106 -204 24 -46 62 -60 165 -60 96
0 123 -8 140 -41 9 -16 8 -26 -4 -44 -15 -22 -91 -55 -128 -55 -21 0 -22 -4
-8 -31 6 -10 17 -19 25 -19 28 0 105 40 144 75 45 41 58 80 41 130 -17 52 -56
69 -165 71 -107 1 -128 7 -144 38 -27 50 19 99 110 116 63 12 64 13 49 39 -15
29 -36 26 -119 -15z"/>
<path d="M3848 1013 c-15 -4 -18 -16 -18 -66 0 -34 -4 -68 -8 -74 -5 -7 -42
-24 -83 -38 -61 -21 -76 -23 -84 -12 -5 8 -25 31 -43 51 -30 34 -37 37 -67 32
-19 -4 -37 -11 -40 -16 -7 -12 295 -362 309 -356 6 2 35 13 64 22 56 19 72 47
25 42 l-28 -3 2 213 c1 116 -2 211 -5 211 -4 -1 -15 -3 -24 -6z m-28 -280 l-1
-88 -61 64 -60 64 58 23 c33 12 60 23 62 23 1 1 2 -38 2 -86z"/>
<path d="M1975 956 c-44 -19 -59 -47 -117 -217 -42 -124 -48 -153 -37 -160 38
-24 46 -12 99 144 55 163 64 182 101 195 51 19 129 -28 129 -78 0 -14 -22 -93
-50 -175 -27 -82 -50 -154 -50 -161 0 -6 27 -17 61 -23 34 -7 67 -15 75 -18
25 -10 15 27 -11 39 -14 6 -25 16 -25 23 0 6 18 65 40 130 62 184 52 240 -49
284 -67 28 -128 35 -166 17z"/>
<path d="M2893 685 c-50 -21 -75 -69 -70 -133 3 -43 10 -59 34 -84 55 -55 160
-49 203 12 46 65 29 152 -39 197 -39 26 -81 29 -128 8z m96 -50 c57 -29 61
-103 9 -139 -33 -24 -72 -20 -102 10 -35 36 -34 77 3 115 33 33 50 35 90 14z"/>
</g>
</svg>
