<?xml version="1.0" standalone="no"?>
<!DOCTYPE svg PUBLIC "-//W3C//DTD SVG 20010904//EN"
 "http://www.w3.org/TR/2001/REC-SVG-20010904/DTD/svg10.dtd">
<svg version="1.0" xmlns="http://www.w3.org/2000/svg"
 width="1801.000000pt" height="814.000000pt" viewBox="0 0 1801.000000 814.000000"
 preserveAspectRatio="xMidYMid meet">

<g transform="translate(0.000000,814.000000) scale(0.100000,-0.100000)"
fill="#000000" stroke="none">
<path d="M2157 8073 c-20 -73 -2133 -7998 -2142 -8036 l-7 -27 7450 0 7451 0
20 68 c11 37 214 751 451 1587 237 836 440 1550 451 1588 l20 67 474 0 474 0
10 38 c6 20 274 1095 596 2387 322 1293 588 2358 591 2368 5 16 -376 17 -7909
17 l-7914 0 -16 -57z m9318 -660 c29 -9 66 -33 90 -58 80 -80 75 24 75 -1455
0 -972 -3 -1326 -12 -1351 -31 -92 -115 -162 -210 -175 -64 -9 -149 18 -199
63 -63 57 -82 103 -87 210 l-4 92 -38 -47 c-98 -123 -231 -225 -363 -280 -219
-92 -503 -81 -741 27 -89 40 -203 119 -278 193 -224 221 -344 566 -324 927 29
527 313 909 766 1033 114 31 366 33 475 4 163 -43 328 -144 441 -270 l59 -66
5 493 5 492 30 53 c61 111 186 158 310 115z m-7031 -514 c50 -14 118 -82 134
-135 29 -97 -5 -200 -81 -252 -23 -16 -344 -170 -714 -343 -370 -172 -669
-317 -665 -321 4 -4 288 -139 632 -301 344 -162 652 -308 685 -325 104 -53
155 -125 155 -219 -1 -90 -62 -176 -145 -203 -90 -30 -84 -32 -943 390 -675
331 -809 400 -846 436 -64 64 -80 103 -84 212 -4 84 -2 98 23 147 14 30 46 72
70 93 31 27 276 152 842 429 439 216 809 394 823 396 46 8 75 7 114 -4z m1785
-294 c197 -32 376 -114 528 -242 64 -54 94 -114 94 -186 0 -92 -44 -167 -123
-208 -94 -48 -184 -33 -291 48 -88 67 -183 116 -268 139 -78 20 -223 23 -299
5 -212 -50 -389 -226 -459 -456 -31 -104 -36 -312 -8 -415 33 -123 92 -227
181 -316 134 -134 285 -191 476 -181 159 9 277 56 428 171 106 81 172 92 262
46 73 -38 114 -107 114 -195 0 -81 -27 -129 -111 -201 -192 -163 -376 -240
-632 -264 -538 -52 -1029 261 -1190 759 -78 239 -75 529 6 754 142 395 461
668 868 742 98 18 311 18 424 0z m2057 0 c281 -45 539 -193 705 -403 107 -133
176 -273 222 -445 19 -71 21 -108 21 -272 0 -174 -2 -198 -27 -288 -108 -401
-415 -705 -817 -811 -529 -139 -1066 75 -1327 529 -180 313 -195 721 -38 1052
60 128 129 224 232 324 224 218 492 326 813 328 69 1 166 -6 216 -14z m4977 0
c424 -74 759 -355 893 -749 158 -465 2 -983 -385 -1274 -358 -269 -851 -313
-1256 -113 -139 69 -225 131 -320 232 -329 349 -399 877 -173 1311 141 272
394 477 695 563 48 14 115 29 148 34 99 14 306 12 398 -4z m2216 -6 c490 -46
759 -299 810 -763 7 -56 11 -329 11 -669 0 -654 1 -647 -75 -722 -126 -127
-365 -78 -414 84 -6 21 -11 57 -11 81 l0 42 -79 -75 c-93 -87 -210 -152 -347
-192 -121 -36 -327 -45 -459 -20 -294 55 -505 234 -572 486 -22 85 -22 269 0
361 66 269 298 453 642 509 114 19 414 16 540 -5 84 -14 189 -38 269 -62 17
-6 18 -2 12 62 -19 196 -79 306 -205 373 -99 52 -144 62 -302 68 -170 6 -295
-10 -442 -57 -144 -46 -226 -39 -295 24 -85 77 -83 226 5 307 38 36 70 51 184
87 236 76 488 104 728 81z m-2897 -2410 c21 -11 50 -38 65 -61 24 -36 28 -52
28 -112 l-1 -71 -781 -1595 c-429 -877 -818 -1671 -864 -1764 -69 -140 -90
-174 -122 -197 -97 -71 -243 -35 -298 73 -47 93 -100 -25 842 1903 470 962
867 1765 883 1783 64 73 156 88 248 41z m-4663 -275 c58 -24 98 -61 125 -116
l26 -52 0 -1337 c0 -1472 4 -1369 -62 -1445 -96 -109 -273 -110 -375 -3 -49
52 -63 96 -63 201 l0 93 -27 -35 c-135 -174 -304 -290 -498 -341 -95 -25 -294
-30 -390 -10 -431 89 -738 417 -820 876 -22 123 -22 361 0 489 41 239 133 430
285 589 223 235 552 346 866 292 200 -35 336 -107 486 -258 l98 -97 0 492 c0
475 1 495 21 538 25 56 53 86 104 113 74 38 148 42 224 11z m5999 -902 c463
-228 812 -406 837 -427 26 -21 55 -58 72 -93 37 -77 39 -190 4 -270 -45 -100
-51 -104 -920 -531 -782 -383 -804 -393 -864 -395 -80 -1 -139 30 -179 94 -55
89 -46 190 22 263 34 37 119 80 729 367 380 179 691 327 691 330 0 3 -307 149
-681 325 -374 176 -696 333 -715 348 -94 78 -109 225 -31 314 48 54 99 74 177
70 63 -4 95 -18 858 -395z m-11378 108 c223 -28 421 -111 588 -248 78 -64 114
-168 88 -255 -31 -103 -117 -167 -226 -167 -67 0 -113 21 -202 88 -129 97
-256 142 -408 142 -286 0 -517 -187 -602 -487 -31 -110 -31 -296 0 -406 69
-244 241 -419 463 -472 82 -19 236 -19 319 1 89 21 190 72 284 143 92 71 129
85 202 79 129 -11 219 -146 184 -277 -14 -52 -73 -118 -174 -195 -187 -142
-418 -216 -676 -216 -192 1 -344 36 -515 119 -313 154 -523 428 -597 781 -26
123 -28 329 -5 451 70 360 292 654 611 809 209 102 432 138 666 110z m2120 0
c213 -26 441 -120 597 -245 408 -327 536 -897 308 -1372 -59 -123 -113 -202
-204 -296 -216 -223 -482 -341 -801 -354 -302 -12 -576 76 -802 258 -172 138
-318 365 -374 584 -32 125 -42 314 -24 447 83 622 661 1056 1300 978z m5090
-19 c483 -109 820 -469 891 -951 18 -124 7 -321 -26 -445 -34 -135 -125 -316
-211 -424 -305 -380 -839 -528 -1322 -365 -165 55 -331 162 -454 293 -305 323
-391 814 -213 1224 63 147 122 234 240 352 190 190 405 297 677 335 95 13 320
3 418 -19z"/>
<path d="M10410 6173 c-181 -30 -357 -164 -438 -333 -56 -118 -76 -217 -75
-365 1 -140 22 -235 77 -343 123 -245 380 -377 645 -332 210 35 409 212 480
426 46 138 52 333 15 469 -79 294 -324 488 -609 483 -38 0 -81 -3 -95 -5z"/>
<path d="M8010 6174 c-14 -2 -52 -9 -85 -15 -102 -18 -217 -80 -298 -162 -82
-82 -128 -155 -162 -256 -88 -260 -33 -552 139 -738 83 -89 157 -138 266 -177
78 -28 96 -30 215 -30 119 0 137 2 215 30 222 79 374 258 421 499 15 77 12
252 -5 329 -57 244 -243 441 -472 500 -63 16 -193 27 -234 20z"/>
<path d="M12942 6169 c-238 -36 -428 -202 -509 -444 -25 -73 -27 -94 -27 -235
0 -141 2 -162 27 -235 94 -283 336 -464 620 -465 306 -1 550 188 633 491 25
89 25 299 1 389 -63 237 -248 428 -469 484 -78 20 -200 27 -276 15z"/>
<path d="M15178 5400 c-230 -42 -358 -167 -358 -351 0 -158 109 -277 289 -315
141 -30 300 -10 436 55 110 52 175 114 222 209 37 74 38 79 41 203 l4 128 -72
21 c-39 12 -104 28 -143 36 -87 17 -353 27 -419 14z"/>
<path d="M6855 2679 c-171 -25 -318 -121 -414 -268 -84 -131 -116 -264 -108
-456 3 -103 10 -146 30 -210 70 -215 234 -378 433 -429 79 -20 222 -21 299 -1
107 28 184 74 271 160 90 89 129 151 170 270 27 75 28 90 29 245 0 153 -2 171
-27 245 -80 236 -261 400 -483 440 -89 16 -114 16 -200 4z"/>
<path d="M4332 2660 c-109 -29 -187 -74 -273 -160 -135 -134 -189 -265 -197
-475 -4 -111 -1 -144 17 -215 34 -136 83 -222 181 -321 133 -135 264 -189 455
-189 192 0 330 55 455 180 136 135 194 286 194 500 0 147 -15 217 -74 335 -87
178 -233 298 -416 345 -101 26 -242 26 -342 0z"/>
<path d="M9345 2670 c-222 -47 -395 -201 -470 -417 -123 -353 20 -740 330
-892 174 -86 422 -81 598 11 93 48 215 174 260 268 54 109 77 212 77 339 0
317 -171 573 -445 667 -65 22 -101 28 -195 30 -63 2 -133 -1 -155 -6z"/>
</g>
</svg>
