<?xml version="1.0" standalone="no"?>
<!DOCTYPE svg PUBLIC "-//W3C//DTD SVG 20010904//EN"
 "http://www.w3.org/TR/2001/REC-SVG-20010904/DTD/svg10.dtd">
<svg version="1.0" xmlns="http://www.w3.org/2000/svg"
 width="142.000000pt" height="157.000000pt" viewBox="0 0 142.000000 157.000000"
 preserveAspectRatio="xMidYMid meet">

<g transform="translate(0.000000,157.000000) scale(0.100000,-0.100000)"
fill="#000000" stroke="none">
<path d="M565 1550 c-11 -5 -56 -18 -101 -31 -86 -23 -141 -21 -164 6 -18 22
-26 19 -40 -15 -7 -17 -39 -55 -72 -85 -49 -46 -65 -55 -96 -55 -43 0 -55 -7
-71 -37 -28 -55 69 -105 101 -53 7 11 16 20 19 20 3 0 17 -35 30 -77 21 -68
24 -97 24 -228 -1 -130 -4 -164 -28 -255 -28 -108 -71 -229 -107 -300 l-20
-40 63 -64 c79 -79 158 -118 297 -150 186 -42 189 -43 251 -106 l58 -57 27 38
c37 53 121 93 264 124 145 31 225 71 306 152 l63 62 -33 73 c-46 100 -93 250
-112 361 -22 123 -15 295 16 392 12 39 24 72 26 74 3 3 11 -5 20 -17 20 -29
67 -29 94 0 25 27 25 39 0 66 -15 15 -33 22 -60 22 -33 0 -47 8 -98 55 -33 30
-65 68 -72 85 -14 34 -22 37 -40 15 -29 -35 -134 -24 -271 26 -19 8 -39 5 -80
-10 l-55 -21 -52 20 c-58 22 -59 22 -87 10z m-51 -106 c9 -3 16 -12 16 -20 0
-11 -4 -12 -19 -2 -15 9 -23 9 -35 -1 -9 -8 -16 -19 -16 -27 0 -22 31 -45 51
-39 11 4 19 2 19 -4 0 -6 -16 -11 -35 -11 -63 0 -82 67 -27 99 20 12 26 13 46
5z m138 -49 c2 -44 0 -55 -12 -55 -12 0 -15 11 -13 53 1 28 2 53 3 55 0 1 4 2
9 2 5 0 11 -25 13 -55z m198 40 c0 -8 -4 -15 -10 -15 -5 0 -10 7 -10 15 0 8 5
15 10 15 6 0 10 -7 10 -15z m-242 -63 c-2 -23 -8 -27 -33 -27 -24 0 -31 5 -33
24 -5 32 23 54 50 40 13 -7 18 -19 16 -37z m202 29 c0 -3 -4 -13 -10 -21 -6
-9 -5 -17 3 -22 23 -14 29 -8 24 22 -5 22 -3 30 7 30 8 0 15 -14 18 -35 3 -27
0 -35 -12 -35 -8 0 -23 -9 -33 -20 -18 -21 -34 -25 -53 -12 -16 10 -12 91 5
101 14 9 51 3 51 -8z m128 -29 c-2 -23 -8 -27 -33 -27 -24 0 -31 5 -33 24 -5
32 23 54 50 40 13 -7 18 -19 16 -37z m-210 16 c2 -13 -3 -18 -20 -19 l-23 -2
23 -4 c32 -6 27 -25 -5 -21 -28 3 -40 25 -29 54 8 21 50 14 54 -8z m-2 -126
c22 -14 32 -49 27 -90 -10 -75 28 -90 68 -26 30 50 47 64 75 64 l25 0 -20 -27
c-19 -28 -36 -113 -22 -113 4 0 12 5 18 11 15 15 36 1 29 -18 -4 -8 -1 -11 5
-8 6 4 8 13 5 20 -3 8 2 19 11 27 14 11 16 10 11 -9 -5 -19 -3 -21 11 -13 10
5 33 24 52 42 19 18 45 33 59 35 l25 2 -22 -18 c-12 -10 -19 -22 -15 -26 4 -3
2 -6 -3 -5 -6 1 -17 2 -25 0 -11 -1 -9 -4 5 -10 14 -6 15 -9 5 -10 -35 -3 -53
-9 -64 -20 -8 -8 -6 -9 9 -5 16 6 17 5 5 -4 -8 -6 -23 -11 -32 -11 -9 0 -19
-4 -22 -9 -3 -5 16 -7 43 -4 49 4 91 -8 91 -27 0 -6 -11 -10 -24 -10 -13 0
-40 -13 -60 -29 -21 -16 -42 -31 -48 -33 -6 -2 17 -58 51 -126 33 -67 61 -124
61 -128 0 -7 -347 3 -360 11 -5 3 -18 1 -29 -4 -10 -6 -41 -11 -69 -12 -35 -2
-49 -6 -45 -14 2 -8 -9 -15 -32 -19 -19 -4 -33 -11 -30 -16 3 -6 0 -8 -7 -5
-7 2 -26 -14 -42 -37 -26 -39 -29 -40 -42 -24 -8 11 -20 16 -29 12 -26 -10 -1
27 42 62 l38 31 -62 1 c-35 0 -63 3 -63 6 0 4 25 62 55 129 30 68 55 127 55
133 0 15 -74 62 -98 62 -27 0 -29 16 -3 30 28 14 70 12 124 -6 55 -19 83 -13
69 13 -5 10 -12 44 -15 77 -3 34 -13 66 -23 77 -21 24 -13 33 21 25 15 -4 40
-27 61 -56 35 -49 64 -65 64 -35 0 8 16 36 36 62 21 28 34 54 31 65 -5 19 1
22 19 10z m297 -127 c-3 -9 -8 -14 -10 -11 -3 3 -2 9 2 15 9 16 15 13 8 -4z
m-37 -27 c-18 -26 -22 -17 -5 14 6 11 13 17 16 15 3 -3 -2 -16 -11 -29z m-606
-563 c-7 -8 -17 -15 -23 -15 -5 0 -2 9 8 20 21 23 35 19 15 -5z m-100 -15 c10
-7 12 -12 4 -17 -6 -5 -19 -24 -29 -43 -10 -19 -23 -38 -29 -42 -16 -11 -36
-10 -36 2 0 6 6 10 13 10 15 0 50 77 41 91 -7 12 17 11 36 -1z m940 -25 c11
-20 11 -27 0 -40 -14 -16 -40 -20 -40 -6 0 5 8 12 18 14 13 4 12 5 -5 6 -28 1
-38 18 -23 36 18 22 35 18 50 -10z m-66 -26 c17 -25 12 -46 -15 -54 -38 -12
-65 35 -37 63 18 18 35 15 52 -9z m-820 -5 c19 -18 19 -20 6 -45 -17 -31 -70
-18 -70 17 0 14 27 44 40 44 5 0 16 -7 24 -16z m156 0 c0 -4 -8 -13 -17 -20
-11 -8 -13 -13 -5 -14 6 0 12 -10 12 -21 0 -16 -5 -20 -20 -16 -11 3 -20 1
-20 -4 0 -5 7 -9 15 -9 8 0 15 -4 15 -10 0 -11 -11 -13 -34 -4 -24 9 -19 46 9
77 24 25 45 35 45 21z m450 -15 c0 -5 -7 -9 -15 -9 -15 0 -20 12 -9 23 8 8 24
-1 24 -14z m140 7 c0 -8 -5 -16 -11 -18 -8 -3 -6 -9 4 -20 9 -8 13 -18 10 -22
-14 -14 -29 -4 -40 24 -9 25 -9 32 5 40 24 13 32 12 32 -4z m-670 -22 c0 -14
-2 -15 -17 -3 -17 13 -17 12 -2 -6 21 -26 14 -45 -16 -45 -26 0 -41 15 -25 25
5 3 10 15 10 26 0 14 7 19 25 19 16 0 25 -6 25 -16z m158 -14 c-5 -17 -8 -39
-5 -50 4 -16 0 -20 -18 -20 -22 0 -23 2 -13 30 5 17 8 39 5 50 -4 16 0 20 18
20 22 0 23 -2 13 -30z m450 18 c16 -16 15 -28 -2 -28 -8 0 -18 -5 -22 -12 -5
-8 0 -9 15 -5 14 3 21 1 18 -6 -2 -7 -13 -13 -25 -15 -16 -2 -25 4 -34 23 -11
24 -10 29 7 41 23 17 28 17 43 2z m-114 -60 c5 -21 3 -28 -9 -28 -8 0 -15 9
-15 19 0 11 -5 23 -11 27 -8 5 -10 -1 -7 -20 4 -19 1 -26 -11 -26 -9 0 -17 8
-18 18 -1 9 -3 23 -5 31 -4 18 43 32 58 17 6 -6 14 -23 18 -38z m39 45 c2 -5
7 -20 11 -35 5 -23 3 -28 -12 -28 -10 0 -18 8 -18 18 -1 9 -4 25 -9 35 -5 12
-3 17 8 17 9 0 18 -3 20 -7z m-296 -15 c16 -13 13 -68 -4 -68 -8 0 -13 12 -13
31 0 19 -4 28 -11 23 -6 -3 -8 -17 -5 -30 5 -19 2 -24 -13 -24 -15 0 -19 7
-17 33 0 17 5 35 9 38 12 9 41 7 54 -3z m95 2 c6 0 4 -10 -5 -23 -13 -20 -13
-24 0 -33 30 -19 -10 -61 -47 -49 -14 4 -17 16 -16 51 2 46 19 68 44 59 8 -3
18 -5 24 -5z m69 -6 c10 -13 10 -17 -2 -25 -8 -5 -18 -9 -24 -10 -5 0 1 -4 15
-9 23 -7 23 -8 6 -15 -40 -17 -75 37 -40 62 23 17 29 16 45 -3z m-89 -169 c3
-15 10 -19 31 -17 32 4 34 -4 6 -27 -17 -14 -19 -21 -10 -44 11 -29 1 -36 -19
-12 -16 20 -29 19 -53 -3 -19 -17 -19 -16 -13 15 6 26 3 34 -13 45 -30 19 -26
31 8 25 27 -6 30 -3 36 24 7 32 20 29 27 -6z"/>
<path d="M565 1387 c-4 -10 -3 -23 3 -29 14 -14 21 3 12 27 -7 19 -8 19 -15 2z"/>
<path d="M765 1390 c-3 -5 -1 -10 4 -10 6 0 11 5 11 10 0 6 -2 10 -4 10 -3 0
-8 -4 -11 -10z"/>
<path d="M760 1330 c0 -5 7 -10 15 -10 8 0 15 5 15 10 0 6 -7 10 -15 10 -8 0
-15 -4 -15 -10z"/>
<path d="M894 1386 c-4 -10 -2 -22 4 -28 8 -8 13 -7 18 6 4 10 2 22 -4 28 -8
8 -13 7 -18 -6z"/>
<path d="M900 1055 c-5 -14 -15 -25 -21 -25 -7 0 -9 -3 -6 -6 9 -10 34 13 40
36 7 28 -2 25 -13 -5z"/>
<path d="M910 1020 c-9 -6 -10 -10 -3 -10 6 0 15 5 18 10 8 12 4 12 -15 0z"/>
<path d="M751 964 c-6 -15 -9 -29 -7 -32 3 -2 10 8 16 23 14 36 7 43 -9 9z"/>
<path d="M868 983 c7 -3 16 -2 19 1 4 3 -2 6 -13 5 -11 0 -14 -3 -6 -6z"/>
<path d="M850 956 c14 -8 27 -12 29 -10 6 6 -1 11 -29 18 l-25 7 25 -15z"/>
<path d="M700 910 c-8 -5 -12 -12 -9 -15 4 -3 12 1 19 10 14 17 11 19 -10 5z"/>
<path d="M692 856 c-33 -26 -39 -35 -26 -40 22 -8 31 -7 16 2 -15 10 5 31 53
56 17 9 23 16 15 16 -8 0 -34 -15 -58 -34z"/>
<path d="M602 845 c0 -16 2 -22 5 -12 2 9 2 23 0 30 -3 6 -5 -1 -5 -18z"/>
<path d="M734 828 l-29 -33 33 29 c30 28 37 36 29 36 -2 0 -16 -15 -33 -32z"/>
<path d="M562 834 c-7 -8 -8 -14 -3 -14 5 0 11 -8 13 -17 2 -10 6 -13 9 -8 3
6 3 20 0 31 -5 19 -8 20 -19 8z"/>
<path d="M542 790 c0 -14 2 -19 5 -12 2 6 2 18 0 25 -3 6 -5 1 -5 -13z"/>
<path d="M624 776 c11 -9 24 -16 30 -16 12 0 7 5 -24 19 -24 11 -24 11 -6 -3z"/>
<path d="M441 752 c-44 -3 -70 -22 -71 -50 0 -9 7 -11 20 -7 11 3 33 7 50 7
16 1 30 6 30 12 0 6 5 4 11 -4 8 -11 9 -8 5 15 -6 29 -6 29 7 7 13 -22 14 -22
30 -4 9 10 17 20 17 23 0 5 -38 5 -99 1z"/>
<path d="M807 744 c-98 -23 -91 -29 36 -29 67 -1 135 -4 150 -8 l28 -8 -16 31
c-15 29 -18 30 -78 29 -34 0 -88 -7 -120 -15z"/>
<path d="M555 732 c-5 -4 -25 -23 -42 -43 -30 -32 -31 -35 -12 -36 14 -1 19 3
16 12 -7 17 28 49 44 39 9 -5 10 -2 6 11 -6 15 -3 16 20 11 16 -4 42 -9 58
-11 24 -4 23 -2 -10 10 -47 16 -66 18 -80 7z"/>
<path d="M1110 473 c0 -5 4 -15 10 -23 11 -18 25 -7 17 15 -6 15 -27 21 -27 8z"/>
<path d="M300 444 c0 -14 4 -23 10 -19 6 3 10 15 10 26 0 10 -4 19 -10 19 -5
0 -10 -12 -10 -26z"/>
<path d="M365 410 c3 -5 8 -10 11 -10 2 0 4 5 4 10 0 6 -5 10 -11 10 -5 0 -7
-4 -4 -10z"/>
<path d="M690 340 c0 -5 6 -10 14 -10 8 0 18 5 21 10 3 6 -3 10 -14 10 -12 0
-21 -4 -21 -10z"/>
</g>
</svg>
